<svg width="375" height="56" viewBox="0 0 375 56" fill="none" xmlns="http://www.w3.org/2000/svg">
<path d="M162.271 21.543V23.3008H159.868V25.332H162.271V27.1484H159.868V29.5117H157.7V19.082H159.868V21.543H162.271ZM159.868 30.2734V36.7383H157.7V32.0312H148.111V30.2734H159.868ZM150.904 20.0977C153.618 20.0781 155.65 21.8555 155.669 24.3359C155.65 26.8555 153.618 28.6133 150.904 28.6133C148.169 28.6133 146.118 26.8555 146.138 24.3359C146.118 21.8555 148.169 20.0781 150.904 20.0977ZM150.904 21.9336C149.38 21.9531 148.247 22.8711 148.267 24.3359C148.247 25.8398 149.38 26.7773 150.904 26.7578C152.407 26.7773 153.54 25.8398 153.54 24.3359C153.54 22.8711 152.407 21.9531 150.904 21.9336ZM178.921 27.7539V29.5117H162.828V27.7539H169.781V25.293H171.929V27.7539H178.921ZM171.949 20.0391C171.949 22.1875 174.312 24.1406 178.004 24.6094L177.164 26.3086C174.263 25.8594 171.959 24.5508 170.836 22.6953C169.703 24.5508 167.398 25.8594 164.488 26.3086L163.707 24.6094C167.339 24.1406 169.742 22.1484 169.742 20.0391V19.375H171.949V20.0391ZM176.949 30.918V36.7383H174.781V32.6172H164.605V30.918H176.949ZM190.368 21.9727C190.348 24.0625 191.774 26.0938 194.567 26.9141L193.532 28.5938C191.51 27.998 190.075 26.7383 189.293 25.1367C188.502 26.9141 187.028 28.3105 184.899 28.9648L183.805 27.2461C186.657 26.3672 188.161 24.2383 188.18 22.0117V21.8945H184.43V20.1367H194.02V21.8945H190.368V21.9727ZM197.985 19.082V22.9492H200.446V24.7461H197.985V28.7891H195.817V19.082H197.985ZM188.707 29.5312V31.3477H195.817V29.5312H197.985V36.5234H186.539V29.5312H188.707ZM188.707 34.7656H195.817V33.0273H188.707V34.7656ZM215.69 19.082V36.7383H213.503V19.082H215.69ZM210.417 20.957C210.417 26.2109 208.386 30.6836 202.194 33.6133L201.061 31.875C205.68 29.6777 207.829 26.6895 208.21 22.6758H201.96V20.957H210.417Z" fill="black"/>
<g clip-path="url(#clip0_38_5318)">
<path d="M50.0054 18.2389C49.4746 17.7081 48.6188 17.7081 48.0879 18.2389L39.0854 27.2414C38.6629 27.6639 38.6629 28.3464 39.0854 28.7689L48.0879 37.7714C48.6188 38.3023 49.4746 38.3023 50.0054 37.7714C50.5363 37.2406 50.5363 36.3848 50.0054 35.8539L42.1621 27.9998L50.0163 20.1456C50.5363 19.6256 50.5363 18.7589 50.0054 18.2389Z" fill="black"/>
</g>
<defs>
<clipPath id="clip0_38_5318">
<rect width="26" height="26" fill="white" transform="translate(32 15)"/>
</clipPath>
</defs>
</svg>
